<svg height="45" width="45" xmlns="http://www.w3.org/2000/svg"><g fill-rule="evenodd" stroke="#000" stroke-linecap="round" stroke-linejoin="round" stroke-width="1.5" transform="translate(0 .3)"><g stroke-linecap="butt"><path d="m9 39h27v-3h-27z"/><path d="m12.5 32 1.5-2.5h17l1.5 2.5z"/><path d="m12 36v-4h21v4z"/><path d="m14 29.5v-13h17v13z" stroke-linejoin="miter"/><path d="m14 16.5-3-2.5h23l-3 2.5z"/><path d="m11 14v-5h4v2h5v-2h5v2h5v-2h4v5z"/></g><path d="m12 35.5h21" fill="none" stroke="#fff" stroke-linejoin="miter" stroke-width="1"/><path d="m13 31.5h19" fill="none" stroke="#fff" stroke-linejoin="miter" stroke-width="1"/><path d="m14 29.5h17" fill="none" stroke="#fff" stroke-linejoin="miter" stroke-width="1"/><path d="m14 16.5h17" fill="none" stroke="#fff" stroke-linejoin="miter" stroke-width="1"/><path d="m11 14h23" fill="none" stroke="#fff" stroke-linejoin="miter" stroke-width="1"/></g></svg>